<?xml version="1.0" encoding="UTF-8" standalone="no"?>
<!-- Created with Inkscape (http://www.inkscape.org/) -->

<svg
   width="210mm"
   height="297mm"
   viewBox="0 0 210 297"
   version="1.1"
   id="svg1"
   inkscape:version="1.4.2 (ebf0e940d0, 2025-05-08)"
   sodipodi:docname="chris.svg"
   xmlns:inkscape="http://www.inkscape.org/namespaces/inkscape"
   xmlns:sodipodi="http://sodipodi.sourceforge.net/DTD/sodipodi-0.dtd"
   xmlns="http://www.w3.org/2000/svg"
   xmlns:svg="http://www.w3.org/2000/svg">
  <sodipodi:namedview
     id="namedview1"
     pagecolor="#ffffff"
     bordercolor="#000000"
     borderopacity="0.25"
     inkscape:showpageshadow="2"
     inkscape:pageopacity="0.0"
     inkscape:pagecheckerboard="0"
     inkscape:deskcolor="#d1d1d1"
     inkscape:document-units="mm"
     inkscape:zoom="0.46906273"
     inkscape:cx="405.06309"
     inkscape:cy="603.33081"
     inkscape:window-width="1184"
     inkscape:window-height="702"
     inkscape:window-x="50"
     inkscape:window-y="0"
     inkscape:window-maximized="0"
     inkscape:current-layer="layer1-5"
     showguides="false" />
  <defs
     id="defs1" />
  <g
     inkscape:label="background"
     inkscape:groupmode="layer"
     id="layer1">
    <g
       inkscape:label="background"
       inkscape:groupmode="layer"
       id="layer1-5"
       transform="translate(-24.767667,17.267751)">
      <rect
         style="fill:#939dac;stroke-width:1.0355"
         id="rect1"
         width="105.83334"
         height="79.375"
         x="73.404182"
         y="90.559784"
         inkscape:label="bg"
         inkscape:export-filename="chris.png"
         inkscape:export-xdpi="96"
         inkscape:export-ydpi="96" />
    </g>
  </g>
  <g
     inkscape:groupmode="layer"
     id="layer6"
     inkscape:label="chris"
     style="display:none"
     sodipodi:insensitive="true">
    <g
       inkscape:groupmode="layer"
       id="layer4"
       inkscape:label="hair-back">
      <path
         id="path4"
         style="fill:#442178;fill-opacity:1;stroke-width:0.509323"
         inkscape:label="hair"
         d="M 101.99854,35.383091 C 88.384192,35.383239 76.042055,41.618724 76.042198,53.428764 L 68.548894,83.69245 c 1.202433,0.61779 3.552506,1.213038 4.922879,1.779002 l 1.281827,-3.15661 0.778543,4.685975 c 1.635047,0.590171 3.889449,1.138593 5.689952,1.635844 l 1.433812,-4.628568 0.997399,4.854032 c 9.964321,2.333912 21.295034,3.083171 32.817614,0.837812 l 1.97147,-4.411109 0.45219,3.362123 c 2.18602,-0.587153 6.46544,-1.291373 8.58916,-2.122616 l 0.67946,-5.399296 1.59005,3.998052 c 1.35141,-0.664374 4.79798,-1.915487 6.10194,-2.69781 L 128.3065,51.291164 C 126.70265,44.675353 115.6131,35.382989 101.99854,35.383091 Z"
         sodipodi:nodetypes="ccccccccccccccccsc" />
    </g>
    <g
       inkscape:groupmode="layer"
       id="layer2"
       inkscape:label="face">
      <path
         id="path1"
         style="fill:#aaeeff;stroke-width:0.509323"
         d="m 101.99854,35.383091 c -13.614348,1.48e-4 -24.650831,9.574185 -24.650688,21.384225 -7.4e-5,2.272328 0.417368,4.530143 1.236617,6.68848 0.628017,1.654406 1.486696,3.236054 2.55695,4.70979 l 5.17e-4,5.17e-4 7.19491,13.251904 c 2.277,3.762 6.137755,6.93033 11.582755,9.50433 4.730389,-2.057389 8.668909,-4.708648 11.815299,-7.954037 l 8.38864,-11.707295 10e-4,-10e-4 c 2.09859,-1.977309 3.74867,-4.280086 4.86379,-6.787699 l 0.015,-0.02119 h -0.007 c 1.09074,-2.451368 1.65132,-5.056131 1.65365,-7.683768 1.4e-4,-11.810217 -11.03666,-21.384327 -24.65122,-21.384225 z"
         inkscape:label="main"
         sodipodi:nodetypes="cccccccccccccccc" />
      <path
         id="path7"
         style="fill:#5f8dd3;stroke-width:0.509323"
         inkscape:label="darkness"
         d="m 99.557866,54.855804 c -8.17608,3.2e-5 -16.068502,1.030709 -22.183659,2.896981 0.103004,1.938396 0.509563,3.856998 1.210262,5.703011 0.628017,1.654406 1.486696,3.236054 2.55695,4.70979 l 5.17e-4,5.17e-4 4.703589,8.663554 c 3.624966,0.560809 7.50616,0.893891 11.460105,0.98571 0.748553,0.01738 2.558046,-2.619713 3.31057,-2.619713 0.70376,2e-6 2.46434,2.638233 3.16407,2.623003 5.24432,-0.113832 8.23073,-0.651649 12.77243,-1.573975 l 3.57084,-4.983675 10e-4,-0.001 c 2.09859,-1.977309 3.74867,-4.280086 4.86379,-6.787699 l 0.015,-0.02119 h -0.007 c 0.70778,-1.590698 1.19279,-3.245714 1.44642,-4.929931 -6.30104,-2.934049 -16.27803,-4.665376 -26.884664,-4.665349 z"
         sodipodi:nodetypes="scccccccccccccccss" />
    </g>
    <g
       inkscape:groupmode="layer"
       id="layer5"
       inkscape:label="mouth">
      <path
         style="fill:#00002b;fill-opacity:1;stroke-width:0.509323"
         d="m 95.609544,84.187165 c 0,0 0.260783,0.324988 0.981536,0.680127 1.073761,0.529076 2.867463,1.168058 3.91423,1.245721 1.001,0.07427 3.12005,-0.474663 4.20698,-0.95792 0.81262,-0.361301 0.76845,-0.685893 0.76845,-0.685893 0,0 -2.64553,0.732758 -4.00543,0.802724 -0.94751,0.04875 -1.899819,-0.101248 -2.833471,-0.269936 -1.029946,-0.186086 -3.032295,-0.814823 -3.032295,-0.814823 z"
         id="path9"
         sodipodi:nodetypes="cssscaac"
         inkscape:label="mouth" />
    </g>
    <g
       inkscape:groupmode="layer"
       id="layer3"
       inkscape:label="hair-front">
      <path
         id="path6"
         style="fill:#442178;stroke-width:0.509323"
         inkscape:label="hair"
         d="m 101.99854,35.383091 c -13.614348,1.48e-4 -25.956485,6.235633 -25.956342,18.045673 l -0.510055,17.697053 c 1.635047,0.590171 3.889449,1.138593 5.689952,1.635844 l 1.433812,-4.628568 0.997399,4.854032 c 0.50095,0.117336 1.616337,0.245246 2.233626,0.374797 l 1.852214,-1.405248 0.994243,2.079514 c 1.186847,0.228145 3.112533,0.916532 3.112533,0.916532 l 1.174769,-4.253186 0.616309,4.094058 c 0,0 2.109217,0.196598 3.248643,0.259645 l 4.153867,-11.315104 2.64833,11.435065 c 0.91041,-0.004 2.84083,-0.02407 3.69116,-0.06099 l 0.92327,-4.352672 1.00304,4.036056 c 0.82903,-0.09433 2.38652,0.322166 3.46477,0.190386 l 0.70571,-1.311952 1.16505,0.989958 c 0.64231,-0.09615 1.79225,-0.728559 2.35925,-0.839048 l 1.4423,-4.411109 0.45219,3.362123 c 2.18602,-0.587153 6.46544,-1.291373 8.58916,-2.122616 l 0.67946,-5.399296 0.1433,-13.962875 C 125.28865,45.189207 115.6131,35.382989 101.99854,35.383091 Z"
         sodipodi:nodetypes="ccccccccccccccccccccccccccsc" />
      <path
         style="fill:#442178;fill-opacity:1;stroke-width:0.509323"
         d="m 100.05158,36.311885 c 0.96998,-1.833222 -1.498853,-3.666443 -2.538304,-5.499665 1.974238,0.893076 3.948474,0.608964 5.922714,4.653562 1.55166,-1.070181 0.88757,-2.087684 5.49966,-3.877968 -2.84714,2.06825 -1.96716,4.207008 -2.39729,6.275257 z"
         id="path8"
         sodipodi:nodetypes="cccccc"
         inkscape:label="top-strand" />
    </g>
  </g>
  <g
     inkscape:groupmode="layer"
     id="g16"
     inkscape:label="chris copia"
     style="display:inline">
    <g
       inkscape:groupmode="layer"
       id="g10"
       inkscape:label="hair-back">
      <path
         id="path10"
         style="display:inline;fill:#442178;fill-opacity:1;stroke-width:0.509323"
         inkscape:label="hair"
         d="M 101.99854,35.383091 C 88.384192,35.383239 76.042055,41.618724 76.042198,53.428764 L 68.548894,83.69245 c 1.202433,0.61779 3.552506,1.213038 4.922879,1.779002 l 1.281827,-3.15661 0.778543,4.685975 c 1.635047,0.590171 3.889449,1.138593 5.689952,1.635844 l 1.433812,-4.628568 0.997399,4.854032 c 9.964321,2.333912 21.295034,3.083171 32.817614,0.837812 l 1.97147,-4.411109 0.45219,3.362123 c 2.18602,-0.587153 6.46544,-1.291373 8.58916,-2.122616 l 0.67946,-5.399296 1.59005,3.998052 c 1.35141,-0.664374 4.79798,-1.915487 6.10194,-2.69781 L 128.3065,51.291164 C 126.70265,44.675353 115.6131,35.382989 101.99854,35.383091 Z"
         sodipodi:nodetypes="ccccccccccccccccsc"
         transform="matrix(1.2153764,0,0,1.2153764,-22.660766,73.461449)" />
    </g>
    <g
       inkscape:groupmode="layer"
       id="g12"
       inkscape:label="face" />
    <g
       inkscape:groupmode="layer"
       id="g13"
       inkscape:label="mouth" />
    <g
       inkscape:groupmode="layer"
       id="g15"
       inkscape:label="hair-front" />
    <g
       inkscape:groupmode="layer"
       id="layer7"
       inkscape:label="neck">
      <path
         id="path18"
         style="display:inline;fill:#d40055;fill-opacity:1;stroke-width:0.509323"
         d="m 117.80075,162.61636 c -2.44456,1.75132 -5.36348,3.4596 -6.5164,5.5547 -0.28294,0.51416 -0.47333,1.11833 -0.54415,1.76372 h 24.65947 c 0.23085,-0.87224 0.21806,-1.67575 -0.37517,-2.29754 -1.74947,-1.83369 -5.21729,-3.66308 -9.3462,-5.02088 z"
         transform="translate(-24.767667,17.267751)"
         inkscape:label="neckerchief-back" />
      <path
         id="path17"
         style="display:inline;fill:#87cdde;fill-opacity:1;stroke-width:0.509323"
         d="M 93.494035 178.95083 L 93.302315 187.20253 L 104.39673 187.20253 L 104.21173 178.95083 L 93.494035 178.95083 z "
         inkscape:label="neck" />
      <path
         id="path19"
         style="fill:#d40055;fill-opacity:1;stroke-width:0.509323"
         inkscape:label="neckerchief-front"
         d="M 91.986117 182.52684 L 91.238359 183.67354 L 89.834827 187.20253 L 107.98307 187.20253 L 109.3866 186.61497 C 109.3866 186.61497 104.74977 181.57938 105.14862 182.87566 C 105.37683 183.61736 104.12078 184.64602 101.96587 185.20627 C 100.35456 185.62518 97.286611 185.89223 96.017395 185.60934 C 92.830014 184.89892 91.986117 182.52684 91.986117 182.52684 z " />
    </g>
    <g
       id="g17"
       style="display:inline"
       transform="matrix(1.2153764,0,0,1.2153764,-22.660766,73.461449)">
      <path
         id="path11"
         style="display:inline;fill:#aaeeff;stroke-width:0.509323"
         d="m 101.99854,35.383091 c -13.614348,1.48e-4 -24.650831,9.574185 -24.650688,21.384225 -7.4e-5,2.272328 0.417368,4.530143 1.236617,6.68848 0.628017,1.654406 1.486696,3.236054 2.55695,4.70979 l 5.17e-4,5.17e-4 7.19491,13.251904 c 2.277,3.762 6.137755,6.93033 11.582755,9.50433 4.730389,-2.057389 8.668909,-4.708648 11.815299,-7.954037 l 8.38864,-11.707295 10e-4,-10e-4 c 2.09859,-1.977309 3.74867,-4.280086 4.86379,-6.787699 l 0.015,-0.02119 h -0.007 c 1.09074,-2.451368 1.65132,-5.056131 1.65365,-7.683768 1.4e-4,-11.810217 -11.03666,-21.384327 -24.65122,-21.384225 z"
         inkscape:label="main"
         sodipodi:nodetypes="cccccccccccccccc" />
      <path
         id="path12"
         style="display:inline;fill:#5f8dd3;stroke-width:0.509323"
         inkscape:label="darkness"
         d="m 99.557866,54.855804 c -8.17608,3.2e-5 -16.068502,1.030709 -22.183659,2.896981 0.103004,1.938396 0.509563,3.856998 1.210262,5.703011 0.628017,1.654406 1.486696,3.236054 2.55695,4.70979 l 5.17e-4,5.17e-4 4.703589,8.663554 c 3.624966,0.560809 7.50616,0.893891 11.460105,0.98571 0.748553,0.01738 2.558046,-2.619713 3.31057,-2.619713 0.70376,2e-6 2.46434,2.638233 3.16407,2.623003 5.24432,-0.113832 8.23073,-0.651649 12.77243,-1.573975 l 3.57084,-4.983675 10e-4,-0.001 c 2.09859,-1.977309 3.74867,-4.280086 4.86379,-6.787699 l 0.015,-0.02119 h -0.007 c 0.70778,-1.590698 1.19279,-3.245714 1.44642,-4.929931 -6.30104,-2.934049 -16.27803,-4.665376 -26.884664,-4.665349 z"
         sodipodi:nodetypes="scccccccccccccccss" />
      <path
         style="display:inline;fill:#00002b;fill-opacity:1;stroke-width:0.509323"
         d="m 95.609544,84.187165 c 0,0 0.260783,0.324988 0.981536,0.680127 1.073761,0.529076 2.867463,1.168058 3.91423,1.245721 1.001,0.07427 3.12005,-0.474663 4.20698,-0.95792 0.81262,-0.361301 0.76845,-0.685893 0.76845,-0.685893 0,0 -2.64553,0.732758 -4.00543,0.802724 -0.94751,0.04875 -1.899819,-0.101248 -2.833471,-0.269936 -1.029946,-0.186086 -3.032295,-0.814823 -3.032295,-0.814823 z"
         id="path13"
         sodipodi:nodetypes="cssscaac"
         inkscape:label="mouth" />
      <path
         id="path14"
         style="fill:#442178;stroke-width:0.509323"
         inkscape:label="hair"
         d="m 101.99854,35.383091 c -13.614348,1.48e-4 -25.956485,6.235633 -25.956342,18.045673 l -0.510055,17.697053 c 1.635047,0.590171 3.889449,1.138593 5.689952,1.635844 l 1.433812,-4.628568 0.997399,4.854032 c 0.50095,0.117336 1.616337,0.245246 2.233626,0.374797 l 1.852214,-1.405248 0.994243,2.079514 c 1.186847,0.228145 3.112533,0.916532 3.112533,0.916532 l 1.174769,-4.253186 0.616309,4.094058 c 0,0 2.109217,0.196598 3.248643,0.259645 l 4.153867,-11.315104 2.64833,11.435065 c 0.91041,-0.004 2.84083,-0.02407 3.69116,-0.06099 l 0.92327,-4.352672 1.00304,4.036056 c 0.82903,-0.09433 2.38652,0.322166 3.46477,0.190386 l 0.70571,-1.311952 1.16505,0.989958 c 0.64231,-0.09615 1.79225,-0.728559 2.35925,-0.839048 l 1.4423,-4.411109 0.45219,3.362123 c 2.18602,-0.587153 6.46544,-1.291373 8.58916,-2.122616 l 0.67946,-5.399296 0.1433,-13.962875 C 125.28865,45.189207 115.6131,35.382989 101.99854,35.383091 Z"
         sodipodi:nodetypes="ccccccccccccccccccccccccccsc" />
      <path
         style="fill:#442178;fill-opacity:1;stroke-width:0.509323"
         d="m 100.05158,36.311885 c 0.96998,-1.833222 -1.498853,-3.666443 -2.538304,-5.499665 1.974238,0.893076 3.948474,0.608964 5.922714,4.653562 1.55166,-1.070181 0.88757,-2.087684 5.49966,-3.877968 -2.84714,2.06825 -1.96716,4.207008 -2.39729,6.275257 z"
         id="path15"
         sodipodi:nodetypes="cccccc"
         inkscape:label="top-strand" />
    </g>
  </g>
</svg>
