<?xml version="1.0" encoding="UTF-8" standalone="no"?>
<!-- Created with Inkscape (http://www.inkscape.org/) -->

<svg
   width="210mm"
   height="297mm"
   viewBox="0 0 210 297"
   version="1.1"
   id="svg1"
   inkscape:version="1.4.2 (ebf0e940d0, 2025-05-08)"
   sodipodi:docname="logo.svg"
   xmlns:inkscape="http://www.inkscape.org/namespaces/inkscape"
   xmlns:sodipodi="http://sodipodi.sourceforge.net/DTD/sodipodi-0.dtd"
   xmlns="http://www.w3.org/2000/svg"
   xmlns:svg="http://www.w3.org/2000/svg">
  <sodipodi:namedview
     id="namedview1"
     pagecolor="#ffffff"
     bordercolor="#000000"
     borderopacity="0.25"
     inkscape:showpageshadow="2"
     inkscape:pageopacity="0.0"
     inkscape:pagecheckerboard="0"
     inkscape:deskcolor="#d1d1d1"
     inkscape:document-units="mm"
     inkscape:zoom="0.5"
     inkscape:cx="279"
     inkscape:cy="496"
     inkscape:window-width="1192"
     inkscape:window-height="702"
     inkscape:window-x="172"
     inkscape:window-y="0"
     inkscape:window-maximized="0"
     inkscape:current-layer="layer1"
     showguides="true" />
  <defs
     id="defs1" />
  <g
     inkscape:label="Capa 1"
     inkscape:groupmode="layer"
     id="layer1">
    <g
       id="g3"
       inkscape:export-filename="logo.png"
       inkscape:export-xdpi="31.75"
       inkscape:export-ydpi="31.75">
      <rect
         style="fill:#d35f5f;stroke-width:0.509323;fill-opacity:1"
         id="rect1"
         width="128"
         height="128"
         x="26.136"
         y="57.023998" />
      <ellipse
         style="fill:#ffff00;stroke-width:0.661176"
         id="path1"
         cx="90.136002"
         cy="121.024"
         rx="64"
         ry="63.999996" />
      <path
         id="ellipse2"
         style="fill:#d35f5f;stroke-width:0.661176"
         d="m 90.1361,57.02391 v 63.99997 63.99997 c 35.346,-1.6e-4 63.99955,-28.65371 63.99971,-63.99971 1.3e-4,-35.3462 -28.65351,-64.00007 -63.99971,-64.00023 z"
         sodipodi:nodetypes="cccsc" />
      <circle
         style="fill:#ffff00;stroke-width:0.760618;fill-opacity:1"
         id="path2"
         cx="90.136101"
         cy="88.975594"
         r="32.048283" />
      <circle
         style="fill:#d35f5f;stroke-width:0.760618;fill-opacity:1"
         id="circle2"
         cx="90.136002"
         cy="152.97572"
         r="32.048283" />
      <path
         d="m 97.396088,136.12844 c 0,0 2.821842,10.62126 3.053972,15.83478 l 0.55568,15.91523 c -7.785253,-3.20292 -10.947427,-3.72026 -21.166664,0 l 0.397929,-4.78379 c 5.166718,-1.68336 10.333428,-2.07183 15.50015,-1.1654 v -8.90539 c 0,0 -3.741095,-0.15828 -5.601055,0 -2.290954,0.19497 -6.794851,1.1654 -6.794851,1.1654 v -3.1838 c 0,0 4.927828,-1.16539 6.794851,-1.16539 h 5.601055 l -0.844134,-12.96804 z"
         id="text2"
         style="font-size:35.2778px;font-family:'Ubuntu Mono';-inkscape-font-specification:'Ubuntu Mono';fill:#ffff00;fill-opacity:1;stroke-width:0.674241"
         aria-label="F"
         sodipodi:nodetypes="czcccccacczccc" />
      <path
         d="m 87.999653,74.983447 c 0.462563,3.002826 1.222327,9.395521 2.136447,14.040448 0.84561,4.296806 1.929704,8.694409 3.092574,12.768485 0.522923,-2.061036 2.203679,-8.541065 3.053014,-12.866327 0.906357,-4.615649 1.52573,-9.788136 2.176005,-13.942606 0,0 1.710107,0.203417 2.527787,0 1.01322,-0.252063 2.76718,-1.467646 2.76718,-1.467646 -0.37839,2.33943 -2.00856,9.507599 -3.32335,14.138293 -1.702117,5.994801 -3.735618,10.32947 -5.89503,17.611696 H 91.685687 C 89.500509,97.421264 87.625188,93.666843 85.948925,87.703017 84.640563,83.048116 82.669995,73.977424 82.585996,73.515801 c 0,0 1.827344,1.216055 2.872837,1.467646 0.823433,0.198153 2.54082,0 2.54082,0 z"
         id="text3"
         style="font-size:35.2777px;font-family:'Ubuntu Mono';-inkscape-font-specification:'Ubuntu Mono';fill:#d35f5f;stroke-width:0.635173"
         aria-label="V"
         sodipodi:nodetypes="cacacacaccacac" />
    </g>
  </g>
</svg>
